<?xml version="1.0" encoding="utf-8"?>
<svg xmlns="http://www.w3.org/2000/svg" xmlns:xlink="http://www.w3.org/1999/xlink" xml:space="preserve" width="812" height="812" viewBox="0 0 812 812"><rect width="812" height="812" fill="#ffffff" x="0" y="0"/><g fill="#000000">
<g transform="translate(280,56) scale(4.8066666666667)"><rect width="6" height="6"/></g>
<g transform="translate(308,56) scale(4.8066666666667)"><rect width="6" height="6"/></g>
<g transform="translate(336,56) scale(4.8066666666667)"><rect width="6" height="6"/></g>
<g transform="translate(364,56) scale(4.8066666666667)"><rect width="6" height="6"/></g>
<g transform="translate(504,56) scale(4.8066666666667)"><rect width="6" height="6"/></g>
<g transform="translate(364,84) scale(4.8066666666667)"><rect width="6" height="6"/></g>
<g transform="translate(448,84) scale(4.8066666666667)"><rect width="6" height="6"/></g>
<g transform="translate(476,84) scale(4.8066666666667)"><rect width="6" height="6"/></g>
<g transform="translate(364,112) scale(4.8066666666667)"><rect width="6" height="6"/></g>
<g transform="translate(392,112) scale(4.8066666666667)"><rect width="6" height="6"/></g>
<g transform="translate(448,112) scale(4.8066666666667)"><rect width="6" height="6"/></g>
<g transform="translate(504,112) scale(4.8066666666667)"><rect width="6" height="6"/></g>
<g transform="translate(392,140) scale(4.8066666666667)"><rect width="6" height="6"/></g>
<g transform="translate(280,168) scale(4.8066666666667)"><rect width="6" height="6"/></g>
<g transform="translate(308,168) scale(4.8066666666667)"><rect width="6" height="6"/></g>
<g transform="translate(336,168) scale(4.8066666666667)"><rect width="6" height="6"/></g>
<g transform="translate(392,168) scale(4.8066666666667)"><rect width="6" height="6"/></g>
<g transform="translate(420,168) scale(4.8066666666667)"><rect width="6" height="6"/></g>
<g transform="translate(504,168) scale(4.8066666666667)"><rect width="6" height="6"/></g>
<g transform="translate(280,196) scale(4.8066666666667)"><rect width="6" height="6"/></g>
<g transform="translate(308,196) scale(4.8066666666667)"><rect width="6" height="6"/></g>
<g transform="translate(336,196) scale(4.8066666666667)"><rect width="6" height="6"/></g>
<g transform="translate(364,196) scale(4.8066666666667)"><rect width="6" height="6"/></g>
<g transform="translate(420,196) scale(4.8066666666667)"><rect width="6" height="6"/></g>
<g transform="translate(448,196) scale(4.8066666666667)"><rect width="6" height="6"/></g>
<g transform="translate(476,196) scale(4.8066666666667)"><rect width="6" height="6"/></g>
<g transform="translate(504,196) scale(4.8066666666667)"><rect width="6" height="6"/></g>
<g transform="translate(280,224) scale(4.8066666666667)"><rect width="6" height="6"/></g>
<g transform="translate(336,224) scale(4.8066666666667)"><rect width="6" height="6"/></g>
<g transform="translate(392,224) scale(4.8066666666667)"><rect width="6" height="6"/></g>
<g transform="translate(448,224) scale(4.8066666666667)"><rect width="6" height="6"/></g>
<g transform="translate(504,224) scale(4.8066666666667)"><rect width="6" height="6"/></g>
<g transform="translate(308,252) scale(4.8066666666667)"><rect width="6" height="6"/></g>
<g transform="translate(336,252) scale(4.8066666666667)"><rect width="6" height="6"/></g>
<g transform="translate(364,252) scale(4.8066666666667)"><rect width="6" height="6"/></g>
<g transform="translate(392,252) scale(4.8066666666667)"><rect width="6" height="6"/></g>
<g transform="translate(420,252) scale(4.8066666666667)"><rect width="6" height="6"/></g>
<g transform="translate(504,252) scale(4.8066666666667)"><rect width="6" height="6"/></g>
<g transform="translate(84,280) scale(4.8066666666667)"><rect width="6" height="6"/></g>
<g transform="translate(112,280) scale(4.8066666666667)"><rect width="6" height="6"/></g>
<g transform="translate(140,280) scale(4.8066666666667)"><rect width="6" height="6"/></g>
<g transform="translate(168,280) scale(4.8066666666667)"><rect width="6" height="6"/></g>
<g transform="translate(196,280) scale(4.8066666666667)"><rect width="6" height="6"/></g>
<g transform="translate(224,280) scale(4.8066666666667)"><rect width="6" height="6"/></g>
<g transform="translate(252,280) scale(4.8066666666667)"><rect width="6" height="6"/></g>
<g transform="translate(308,280) scale(4.8066666666667)"><rect width="6" height="6"/></g>
<g transform="translate(364,280) scale(4.8066666666667)"><rect width="6" height="6"/></g>
<g transform="translate(392,280) scale(4.8066666666667)"><rect width="6" height="6"/></g>
<g transform="translate(448,280) scale(4.8066666666667)"><rect width="6" height="6"/></g>
<g transform="translate(588,280) scale(4.8066666666667)"><rect width="6" height="6"/></g>
<g transform="translate(616,280) scale(4.8066666666667)"><rect width="6" height="6"/></g>
<g transform="translate(728,280) scale(4.8066666666667)"><rect width="6" height="6"/></g>
<g transform="translate(56,308) scale(4.8066666666667)"><rect width="6" height="6"/></g>
<g transform="translate(84,308) scale(4.8066666666667)"><rect width="6" height="6"/></g>
<g transform="translate(112,308) scale(4.8066666666667)"><rect width="6" height="6"/></g>
<g transform="translate(196,308) scale(4.8066666666667)"><rect width="6" height="6"/></g>
<g transform="translate(252,308) scale(4.8066666666667)"><rect width="6" height="6"/></g>
<g transform="translate(280,308) scale(4.8066666666667)"><rect width="6" height="6"/></g>
<g transform="translate(504,308) scale(4.8066666666667)"><rect width="6" height="6"/></g>
<g transform="translate(532,308) scale(4.8066666666667)"><rect width="6" height="6"/></g>
<g transform="translate(588,308) scale(4.8066666666667)"><rect width="6" height="6"/></g>
<g transform="translate(700,308) scale(4.8066666666667)"><rect width="6" height="6"/></g>
<g transform="translate(56,336) scale(4.8066666666667)"><rect width="6" height="6"/></g>
<g transform="translate(84,336) scale(4.8066666666667)"><rect width="6" height="6"/></g>
<g transform="translate(112,336) scale(4.8066666666667)"><rect width="6" height="6"/></g>
<g transform="translate(224,336) scale(4.8066666666667)"><rect width="6" height="6"/></g>
<g transform="translate(280,336) scale(4.8066666666667)"><rect width="6" height="6"/></g>
<g transform="translate(364,336) scale(4.8066666666667)"><rect width="6" height="6"/></g>
<g transform="translate(476,336) scale(4.8066666666667)"><rect width="6" height="6"/></g>
<g transform="translate(560,336) scale(4.8066666666667)"><rect width="6" height="6"/></g>
<g transform="translate(644,336) scale(4.8066666666667)"><rect width="6" height="6"/></g>
<g transform="translate(700,336) scale(4.8066666666667)"><rect width="6" height="6"/></g>
<g transform="translate(728,336) scale(4.8066666666667)"><rect width="6" height="6"/></g>
<g transform="translate(168,364) scale(4.8066666666667)"><rect width="6" height="6"/></g>
<g transform="translate(280,364) scale(4.8066666666667)"><rect width="6" height="6"/></g>
<g transform="translate(308,364) scale(4.8066666666667)"><rect width="6" height="6"/></g>
<g transform="translate(392,364) scale(4.8066666666667)"><rect width="6" height="6"/></g>
<g transform="translate(448,364) scale(4.8066666666667)"><rect width="6" height="6"/></g>
<g transform="translate(504,364) scale(4.8066666666667)"><rect width="6" height="6"/></g>
<g transform="translate(588,364) scale(4.8066666666667)"><rect width="6" height="6"/></g>
<g transform="translate(728,364) scale(4.8066666666667)"><rect width="6" height="6"/></g>
<g transform="translate(140,392) scale(4.8066666666667)"><rect width="6" height="6"/></g>
<g transform="translate(168,392) scale(4.8066666666667)"><rect width="6" height="6"/></g>
<g transform="translate(196,392) scale(4.8066666666667)"><rect width="6" height="6"/></g>
<g transform="translate(224,392) scale(4.8066666666667)"><rect width="6" height="6"/></g>
<g transform="translate(252,392) scale(4.8066666666667)"><rect width="6" height="6"/></g>
<g transform="translate(532,392) scale(4.8066666666667)"><rect width="6" height="6"/></g>
<g transform="translate(560,392) scale(4.8066666666667)"><rect width="6" height="6"/></g>
<g transform="translate(588,392) scale(4.8066666666667)"><rect width="6" height="6"/></g>
<g transform="translate(616,392) scale(4.8066666666667)"><rect width="6" height="6"/></g>
<g transform="translate(672,392) scale(4.8066666666667)"><rect width="6" height="6"/></g>
<g transform="translate(700,392) scale(4.8066666666667)"><rect width="6" height="6"/></g>
<g transform="translate(728,392) scale(4.8066666666667)"><rect width="6" height="6"/></g>
<g transform="translate(56,420) scale(4.8066666666667)"><rect width="6" height="6"/></g>
<g transform="translate(84,420) scale(4.8066666666667)"><rect width="6" height="6"/></g>
<g transform="translate(336,420) scale(4.8066666666667)"><rect width="6" height="6"/></g>
<g transform="translate(364,420) scale(4.8066666666667)"><rect width="6" height="6"/></g>
<g transform="translate(448,420) scale(4.8066666666667)"><rect width="6" height="6"/></g>
<g transform="translate(588,420) scale(4.8066666666667)"><rect width="6" height="6"/></g>
<g transform="translate(644,420) scale(4.8066666666667)"><rect width="6" height="6"/></g>
<g transform="translate(700,420) scale(4.8066666666667)"><rect width="6" height="6"/></g>
<g transform="translate(56,448) scale(4.8066666666667)"><rect width="6" height="6"/></g>
<g transform="translate(112,448) scale(4.8066666666667)"><rect width="6" height="6"/></g>
<g transform="translate(140,448) scale(4.8066666666667)"><rect width="6" height="6"/></g>
<g transform="translate(224,448) scale(4.8066666666667)"><rect width="6" height="6"/></g>
<g transform="translate(308,448) scale(4.8066666666667)"><rect width="6" height="6"/></g>
<g transform="translate(336,448) scale(4.8066666666667)"><rect width="6" height="6"/></g>
<g transform="translate(392,448) scale(4.8066666666667)"><rect width="6" height="6"/></g>
<g transform="translate(420,448) scale(4.8066666666667)"><rect width="6" height="6"/></g>
<g transform="translate(476,448) scale(4.8066666666667)"><rect width="6" height="6"/></g>
<g transform="translate(532,448) scale(4.8066666666667)"><rect width="6" height="6"/></g>
<g transform="translate(588,448) scale(4.8066666666667)"><rect width="6" height="6"/></g>
<g transform="translate(616,448) scale(4.8066666666667)"><rect width="6" height="6"/></g>
<g transform="translate(644,448) scale(4.8066666666667)"><rect width="6" height="6"/></g>
<g transform="translate(700,448) scale(4.8066666666667)"><rect width="6" height="6"/></g>
<g transform="translate(728,448) scale(4.8066666666667)"><rect width="6" height="6"/></g>
<g transform="translate(56,476) scale(4.8066666666667)"><rect width="6" height="6"/></g>
<g transform="translate(112,476) scale(4.8066666666667)"><rect width="6" height="6"/></g>
<g transform="translate(196,476) scale(4.8066666666667)"><rect width="6" height="6"/></g>
<g transform="translate(252,476) scale(4.8066666666667)"><rect width="6" height="6"/></g>
<g transform="translate(280,476) scale(4.8066666666667)"><rect width="6" height="6"/></g>
<g transform="translate(336,476) scale(4.8066666666667)"><rect width="6" height="6"/></g>
<g transform="translate(364,476) scale(4.8066666666667)"><rect width="6" height="6"/></g>
<g transform="translate(392,476) scale(4.8066666666667)"><rect width="6" height="6"/></g>
<g transform="translate(420,476) scale(4.8066666666667)"><rect width="6" height="6"/></g>
<g transform="translate(504,476) scale(4.8066666666667)"><rect width="6" height="6"/></g>
<g transform="translate(532,476) scale(4.8066666666667)"><rect width="6" height="6"/></g>
<g transform="translate(588,476) scale(4.8066666666667)"><rect width="6" height="6"/></g>
<g transform="translate(616,476) scale(4.8066666666667)"><rect width="6" height="6"/></g>
<g transform="translate(728,476) scale(4.8066666666667)"><rect width="6" height="6"/></g>
<g transform="translate(56,504) scale(4.8066666666667)"><rect width="6" height="6"/></g>
<g transform="translate(140,504) scale(4.8066666666667)"><rect width="6" height="6"/></g>
<g transform="translate(168,504) scale(4.8066666666667)"><rect width="6" height="6"/></g>
<g transform="translate(196,504) scale(4.8066666666667)"><rect width="6" height="6"/></g>
<g transform="translate(224,504) scale(4.8066666666667)"><rect width="6" height="6"/></g>
<g transform="translate(336,504) scale(4.8066666666667)"><rect width="6" height="6"/></g>
<g transform="translate(392,504) scale(4.8066666666667)"><rect width="6" height="6"/></g>
<g transform="translate(504,504) scale(4.8066666666667)"><rect width="6" height="6"/></g>
<g transform="translate(532,504) scale(4.8066666666667)"><rect width="6" height="6"/></g>
<g transform="translate(560,504) scale(4.8066666666667)"><rect width="6" height="6"/></g>
<g transform="translate(588,504) scale(4.8066666666667)"><rect width="6" height="6"/></g>
<g transform="translate(616,504) scale(4.8066666666667)"><rect width="6" height="6"/></g>
<g transform="translate(672,504) scale(4.8066666666667)"><rect width="6" height="6"/></g>
<g transform="translate(280,532) scale(4.8066666666667)"><rect width="6" height="6"/></g>
<g transform="translate(308,532) scale(4.8066666666667)"><rect width="6" height="6"/></g>
<g transform="translate(336,532) scale(4.8066666666667)"><rect width="6" height="6"/></g>
<g transform="translate(420,532) scale(4.8066666666667)"><rect width="6" height="6"/></g>
<g transform="translate(476,532) scale(4.8066666666667)"><rect width="6" height="6"/></g>
<g transform="translate(504,532) scale(4.8066666666667)"><rect width="6" height="6"/></g>
<g transform="translate(616,532) scale(4.8066666666667)"><rect width="6" height="6"/></g>
<g transform="translate(644,532) scale(4.8066666666667)"><rect width="6" height="6"/></g>
<g transform="translate(280,560) scale(4.8066666666667)"><rect width="6" height="6"/></g>
<g transform="translate(308,560) scale(4.8066666666667)"><rect width="6" height="6"/></g>
<g transform="translate(420,560) scale(4.8066666666667)"><rect width="6" height="6"/></g>
<g transform="translate(504,560) scale(4.8066666666667)"><rect width="6" height="6"/></g>
<g transform="translate(560,560) scale(4.8066666666667)"><rect width="6" height="6"/></g>
<g transform="translate(616,560) scale(4.8066666666667)"><rect width="6" height="6"/></g>
<g transform="translate(672,560) scale(4.8066666666667)"><rect width="6" height="6"/></g>
<g transform="translate(700,560) scale(4.8066666666667)"><rect width="6" height="6"/></g>
<g transform="translate(728,560) scale(4.8066666666667)"><rect width="6" height="6"/></g>
<g transform="translate(280,588) scale(4.8066666666667)"><rect width="6" height="6"/></g>
<g transform="translate(336,588) scale(4.8066666666667)"><rect width="6" height="6"/></g>
<g transform="translate(420,588) scale(4.8066666666667)"><rect width="6" height="6"/></g>
<g transform="translate(448,588) scale(4.8066666666667)"><rect width="6" height="6"/></g>
<g transform="translate(504,588) scale(4.8066666666667)"><rect width="6" height="6"/></g>
<g transform="translate(616,588) scale(4.8066666666667)"><rect width="6" height="6"/></g>
<g transform="translate(644,588) scale(4.8066666666667)"><rect width="6" height="6"/></g>
<g transform="translate(280,616) scale(4.8066666666667)"><rect width="6" height="6"/></g>
<g transform="translate(308,616) scale(4.8066666666667)"><rect width="6" height="6"/></g>
<g transform="translate(336,616) scale(4.8066666666667)"><rect width="6" height="6"/></g>
<g transform="translate(364,616) scale(4.8066666666667)"><rect width="6" height="6"/></g>
<g transform="translate(420,616) scale(4.8066666666667)"><rect width="6" height="6"/></g>
<g transform="translate(448,616) scale(4.8066666666667)"><rect width="6" height="6"/></g>
<g transform="translate(476,616) scale(4.8066666666667)"><rect width="6" height="6"/></g>
<g transform="translate(504,616) scale(4.8066666666667)"><rect width="6" height="6"/></g>
<g transform="translate(532,616) scale(4.8066666666667)"><rect width="6" height="6"/></g>
<g transform="translate(560,616) scale(4.8066666666667)"><rect width="6" height="6"/></g>
<g transform="translate(588,616) scale(4.8066666666667)"><rect width="6" height="6"/></g>
<g transform="translate(616,616) scale(4.8066666666667)"><rect width="6" height="6"/></g>
<g transform="translate(672,616) scale(4.8066666666667)"><rect width="6" height="6"/></g>
<g transform="translate(728,616) scale(4.8066666666667)"><rect width="6" height="6"/></g>
<g transform="translate(280,644) scale(4.8066666666667)"><rect width="6" height="6"/></g>
<g transform="translate(308,644) scale(4.8066666666667)"><rect width="6" height="6"/></g>
<g transform="translate(336,644) scale(4.8066666666667)"><rect width="6" height="6"/></g>
<g transform="translate(420,644) scale(4.8066666666667)"><rect width="6" height="6"/></g>
<g transform="translate(532,644) scale(4.8066666666667)"><rect width="6" height="6"/></g>
<g transform="translate(560,644) scale(4.8066666666667)"><rect width="6" height="6"/></g>
<g transform="translate(616,644) scale(4.8066666666667)"><rect width="6" height="6"/></g>
<g transform="translate(644,644) scale(4.8066666666667)"><rect width="6" height="6"/></g>
<g transform="translate(672,644) scale(4.8066666666667)"><rect width="6" height="6"/></g>
<g transform="translate(700,644) scale(4.8066666666667)"><rect width="6" height="6"/></g>
<g transform="translate(728,644) scale(4.8066666666667)"><rect width="6" height="6"/></g>
<g transform="translate(280,672) scale(4.8066666666667)"><rect width="6" height="6"/></g>
<g transform="translate(364,672) scale(4.8066666666667)"><rect width="6" height="6"/></g>
<g transform="translate(392,672) scale(4.8066666666667)"><rect width="6" height="6"/></g>
<g transform="translate(476,672) scale(4.8066666666667)"><rect width="6" height="6"/></g>
<g transform="translate(504,672) scale(4.8066666666667)"><rect width="6" height="6"/></g>
<g transform="translate(532,672) scale(4.8066666666667)"><rect width="6" height="6"/></g>
<g transform="translate(644,672) scale(4.8066666666667)"><rect width="6" height="6"/></g>
<g transform="translate(672,672) scale(4.8066666666667)"><rect width="6" height="6"/></g>
<g transform="translate(728,672) scale(4.8066666666667)"><rect width="6" height="6"/></g>
<g transform="translate(280,700) scale(4.8066666666667)"><rect width="6" height="6"/></g>
<g transform="translate(420,700) scale(4.8066666666667)"><rect width="6" height="6"/></g>
<g transform="translate(448,700) scale(4.8066666666667)"><rect width="6" height="6"/></g>
<g transform="translate(476,700) scale(4.8066666666667)"><rect width="6" height="6"/></g>
<g transform="translate(504,700) scale(4.8066666666667)"><rect width="6" height="6"/></g>
<g transform="translate(560,700) scale(4.8066666666667)"><rect width="6" height="6"/></g>
<g transform="translate(588,700) scale(4.8066666666667)"><rect width="6" height="6"/></g>
<g transform="translate(616,700) scale(4.8066666666667)"><rect width="6" height="6"/></g>
<g transform="translate(644,700) scale(4.8066666666667)"><rect width="6" height="6"/></g>
<g transform="translate(728,700) scale(4.8066666666667)"><rect width="6" height="6"/></g>
<g transform="translate(336,728) scale(4.8066666666667)"><rect width="6" height="6"/></g>
<g transform="translate(392,728) scale(4.8066666666667)"><rect width="6" height="6"/></g>
<g transform="translate(448,728) scale(4.8066666666667)"><rect width="6" height="6"/></g>
<g transform="translate(560,728) scale(4.8066666666667)"><rect width="6" height="6"/></g>
<g transform="translate(588,728) scale(4.8066666666667)"><rect width="6" height="6"/></g>
<g transform="translate(616,728) scale(4.8066666666667)"><rect width="6" height="6"/></g>
<g transform="translate(644,728) scale(4.8066666666667)"><rect width="6" height="6"/></g>
<g transform="translate(672,728) scale(4.8066666666667)"><rect width="6" height="6"/></g>
<g transform="translate(700,728) scale(4.8066666666667)"><rect width="6" height="6"/></g>
<g transform="translate(728,728) scale(4.8066666666667)"><rect width="6" height="6"/></g>
<g transform="translate(56,56)"><g transform="scale(14)"><path d="M0,0v14h14V0H0z M12,12H2V2h10V12z"/></g></g>
<g transform="translate(560,56)"><g transform="scale(14)"><path d="M0,0v14h14V0H0z M12,12H2V2h10V12z"/></g></g>
<g transform="translate(56,560)"><g transform="scale(14)"><path d="M0,0v14h14V0H0z M12,12H2V2h10V12z"/></g></g>
<g transform="translate(112,112)"><g transform="scale(14)"><rect width="6" height="6"/></g></g>
<g transform="translate(616,112)"><g transform="scale(14)"><rect width="6" height="6"/></g></g>
<g transform="translate(112,616)"><g transform="scale(14)"><rect width="6" height="6"/></g></g>
</g></svg>
